<svg xmlns="http://www.w3.org/2000/svg" width="200" height="200" viewBox="0 0 200 200" version="1.1"><path d="M 68.269 49.693 C 69.242 49.947, 70.592 49.930, 71.269 49.656 C 71.946 49.382, 71.150 49.175, 69.500 49.195 C 67.850 49.215, 67.296 49.439, 68.269 49.693 M 78.250 49.689 C 79.213 49.941, 80.787 49.941, 81.750 49.689 C 82.713 49.438, 81.925 49.232, 80 49.232 C 78.075 49.232, 77.287 49.438, 78.250 49.689 M 118.250 49.689 C 119.213 49.941, 120.787 49.941, 121.750 49.689 C 122.713 49.438, 121.925 49.232, 120 49.232 C 118.075 49.232, 117.287 49.438, 118.250 49.689 M 128.250 49.689 C 129.213 49.941, 130.787 49.941, 131.750 49.689 C 132.713 49.438, 131.925 49.232, 130 49.232 C 128.075 49.232, 127.287 49.438, 128.250 49.689 M 59.500 51 C 58.239 51.542, 58.055 51.859, 59 51.859 C 59.825 51.859, 61.400 51.473, 62.500 51 C 63.761 50.458, 63.945 50.141, 63 50.141 C 62.175 50.141, 60.600 50.527, 59.500 51 M 112.813 50.683 C 113.534 50.972, 114.397 50.936, 114.729 50.604 C 115.061 50.272, 114.471 50.036, 113.417 50.079 C 112.252 50.127, 112.015 50.364, 112.813 50.683 M 137.500 51 C 138.600 51.473, 140.175 51.859, 141 51.859 C 141.945 51.859, 141.761 51.542, 140.500 51 C 139.400 50.527, 137.825 50.141, 137 50.141 C 136.055 50.141, 136.239 50.458, 137.500 51 M 51.750 54.068 C 49.688 55.157, 48 56.271, 48 56.544 C 48 56.990, 55.899 53.298, 56.917 52.377 C 58.067 51.336, 55.064 52.319, 51.750 54.068 M 105 53 C 104.175 53.533, 103.950 53.969, 104.500 53.969 C 105.050 53.969, 106.175 53.533, 107 53 C 107.825 52.467, 108.050 52.031, 107.500 52.031 C 106.950 52.031, 105.825 52.467, 105 53 M 145.083 53.373 C 146.112 54.294, 152 56.999, 152 56.551 C 152 55.975, 146.456 53, 145.383 53 C 144.989 53, 144.854 53.168, 145.083 53.373 M 98.441 56.555 C 96.577 58.049, 96.589 58.067, 98.750 57.020 C 99.987 56.420, 101 55.720, 101 55.465 C 101 54.700, 100.481 54.921, 98.441 56.555 M 153 57.378 C 153 57.585, 153.787 58.373, 154.750 59.128 C 156.336 60.371, 156.371 60.336, 155.128 58.750 C 153.821 57.084, 153 56.555, 153 57.378 M 93.872 59.750 C 92.629 61.336, 92.664 61.371, 94.250 60.128 C 95.916 58.821, 96.445 58, 95.622 58 C 95.415 58, 94.627 58.788, 93.872 59.750 M 37.821 64.750 C 34.805 67.912, 31.798 71.625, 31.140 73 L 29.942 75.500 31.707 73 C 32.678 71.625, 35.910 67.912, 38.888 64.750 C 41.867 61.587, 44.079 59, 43.804 59 C 43.529 59, 40.837 61.587, 37.821 64.750 M 84.079 61.583 C 84.127 62.748, 84.364 62.985, 84.683 62.188 C 84.972 61.466, 84.936 60.603, 84.604 60.271 C 84.272 59.939, 84.036 60.529, 84.079 61.583 M 160.958 64.250 C 163.410 66.862, 165.548 69, 165.708 69 C 166.459 69, 165.665 68.102, 161.250 63.958 L 156.500 59.500 160.958 64.250 M 86.866 66.017 C 84.861 68.512, 83.377 69.610, 82.948 68.915 C 82.568 68.300, 82.050 69.207, 81.797 70.930 C 81.544 72.653, 81.627 73.711, 81.982 73.281 C 88.306 65.621, 91.084 62, 90.640 62 C 90.340 62, 88.642 63.807, 86.866 66.017 M 170.202 77.478 C 171.398 79.941, 172.549 81.785, 172.758 81.575 C 173.211 81.123, 169.170 73, 168.493 73 C 168.236 73, 169.005 75.015, 170.202 77.478 M 73.269 74.693 C 74.242 74.947, 75.592 74.930, 76.269 74.656 C 76.946 74.382, 76.150 74.175, 74.500 74.195 C 72.850 74.215, 72.296 74.439, 73.269 74.693 M 124.269 74.693 C 125.242 74.947, 126.592 74.930, 127.269 74.656 C 127.946 74.382, 127.150 74.175, 125.500 74.195 C 123.850 74.215, 123.296 74.439, 124.269 74.693 M 67.750 75.662 C 68.438 75.940, 69.563 75.940, 70.250 75.662 C 70.938 75.385, 70.375 75.158, 69 75.158 C 67.625 75.158, 67.063 75.385, 67.750 75.662 M 118.813 75.683 C 119.534 75.972, 120.397 75.936, 120.729 75.604 C 121.061 75.272, 120.471 75.036, 119.417 75.079 C 118.252 75.127, 118.015 75.364, 118.813 75.683 M 129.813 75.683 C 130.534 75.972, 131.397 75.936, 131.729 75.604 C 132.061 75.272, 131.471 75.036, 130.417 75.079 C 129.252 75.127, 129.015 75.364, 129.813 75.683 M 28.459 77.067 C 28.096 77.653, 28.014 78.348, 28.276 78.610 C 28.538 78.872, 29.019 78.392, 29.345 77.543 C 30.021 75.781, 29.445 75.471, 28.459 77.067 M 62.441 77.555 C 60.611 79.022, 60.643 79.042, 63 77.920 C 66.061 76.462, 66.628 76, 65.358 76 C 64.821 76, 63.509 76.700, 62.441 77.555 M 113.441 77.555 C 111.611 79.022, 111.643 79.042, 114 77.920 C 117.061 76.462, 117.628 76, 116.358 76 C 115.821 76, 114.509 76.700, 113.441 77.555 M 78.624 78.539 C 77.659 81.053, 77.943 81.702, 79.122 79.675 C 79.706 78.671, 79.973 77.639, 79.715 77.382 C 79.458 77.124, 78.966 77.645, 78.624 78.539 M 140.310 80.165 C 141.855 81.453, 144.032 83.631, 145.147 85.004 C 146.261 86.377, 146.843 86.825, 146.438 86 C 145.272 83.623, 141.683 79.907, 139.500 78.819 C 138.359 78.251, 138.707 78.829, 140.310 80.165 M 56.437 82.250 L 53.500 85.500 56.750 82.563 C 58.538 80.948, 60 79.485, 60 79.313 C 60 78.540, 59.175 79.221, 56.437 82.250 M 26.624 81.539 C 25.659 84.053, 25.943 84.702, 27.122 82.675 C 27.706 81.671, 27.973 80.639, 27.715 80.382 C 27.458 80.124, 26.966 80.645, 26.624 81.539 M 76.624 83.539 C 76.281 84.432, 76.029 85.689, 76.063 86.332 C 76.098 86.974, 76.558 86.422, 77.085 85.105 C 77.612 83.787, 77.864 82.531, 77.645 82.312 C 77.426 82.093, 76.966 82.645, 76.624 83.539 M 105.405 84.250 L 103.500 86.500 105.750 84.595 C 106.987 83.547, 108 82.535, 108 82.345 C 108 81.545, 107.195 82.136, 105.405 84.250 M 174.079 87.583 C 174.127 88.748, 174.364 88.985, 174.683 88.188 C 174.972 87.466, 174.936 86.603, 174.604 86.271 C 174.272 85.939, 174.036 86.529, 174.079 87.583 M 102.459 88.067 C 102.096 88.653, 102.014 89.348, 102.276 89.610 C 102.538 89.872, 103.019 89.392, 103.345 88.543 C 104.021 86.781, 103.445 86.471, 102.459 88.067 M 75.079 89.583 C 75.127 90.748, 75.364 90.985, 75.683 90.188 C 75.972 89.466, 75.936 88.603, 75.604 88.271 C 75.272 87.939, 75.036 88.529, 75.079 89.583 M 147.564 89.293 C 147.940 90.279, 148.499 90.834, 148.807 90.526 C 149.115 90.219, 148.808 89.412, 148.124 88.733 C 147.136 87.753, 147.022 87.868, 147.564 89.293 M 24.158 91 C 24.158 92.375, 24.385 92.938, 24.662 92.250 C 24.940 91.563, 24.940 90.438, 24.662 89.750 C 24.385 89.063, 24.158 89.625, 24.158 91 M 50.624 90.539 C 49.659 93.053, 49.943 93.702, 51.122 91.675 C 51.706 90.671, 51.973 89.639, 51.715 89.382 C 51.458 89.124, 50.966 89.645, 50.624 90.539 M 175.195 92.500 C 175.215 94.150, 175.439 94.704, 175.693 93.731 C 175.947 92.758, 175.930 91.408, 175.656 90.731 C 175.382 90.054, 175.175 90.850, 175.195 92.500 M 100.624 92.539 C 100.281 93.432, 100.029 94.689, 100.063 95.332 C 100.098 95.974, 100.558 95.422, 101.085 94.105 C 101.612 92.787, 101.864 91.531, 101.645 91.312 C 101.426 91.093, 100.966 91.645, 100.624 92.539 M 74.252 96.500 C 74.263 98.700, 74.468 99.482, 74.707 98.238 C 74.946 96.994, 74.937 95.194, 74.687 94.238 C 74.437 93.282, 74.241 94.300, 74.252 96.500 M 49.300 100 C 49.300 103.025, 49.487 104.263, 49.716 102.750 C 49.945 101.237, 49.945 98.763, 49.716 97.250 C 49.487 95.737, 49.300 96.975, 49.300 100 M 23.272 100 C 23.272 102.475, 23.467 103.487, 23.706 102.250 C 23.944 101.013, 23.944 98.987, 23.706 97.750 C 23.467 96.513, 23.272 97.525, 23.272 100 M 150.272 100 C 150.272 102.475, 150.467 103.487, 150.706 102.250 C 150.944 101.013, 150.944 98.987, 150.706 97.750 C 150.467 96.513, 150.272 97.525, 150.272 100 M 99.390 100.427 C 99.088 101.212, 99.009 102.900, 99.214 104.177 C 99.488 105.886, 99.721 105.509, 100.093 102.750 C 100.616 98.868, 100.339 97.952, 99.390 100.427 M 125.195 102.500 C 125.215 104.150, 125.439 104.704, 125.693 103.731 C 125.947 102.758, 125.930 101.408, 125.656 100.731 C 125.382 100.054, 125.175 100.850, 125.195 102.500 M 175.195 107.500 C 175.215 109.150, 175.439 109.704, 175.693 108.731 C 175.947 107.758, 175.930 106.408, 175.656 105.731 C 175.382 105.054, 175.175 105.850, 175.195 107.500 M 24.158 109 C 24.158 110.375, 24.385 110.938, 24.662 110.250 C 24.940 109.563, 24.940 108.438, 24.662 107.750 C 24.385 107.063, 24.158 107.625, 24.158 109 M 50.031 107.500 C 50.031 108.050, 50.467 109.175, 51 110 C 51.533 110.825, 51.969 111.050, 51.969 110.500 C 51.969 109.950, 51.533 108.825, 51 108 C 50.467 107.175, 50.031 106.950, 50.031 107.500 M 124.158 109 C 124.158 110.375, 124.385 110.938, 124.662 110.250 C 124.940 109.563, 124.940 108.438, 124.662 107.750 C 124.385 107.063, 124.158 107.625, 124.158 109 M 123.079 113.583 C 123.127 114.748, 123.364 114.985, 123.683 114.188 C 123.972 113.466, 123.936 112.603, 123.604 112.271 C 123.272 111.939, 123.036 112.529, 123.079 113.583 M 91.946 117.750 L 88.500 121.500 92.250 118.054 C 95.740 114.846, 96.460 114, 95.696 114 C 95.529 114, 93.842 115.688, 91.946 117.750 M 56.004 117.342 C 57.377 118.905, 59.400 120.647, 60.500 121.214 C 62.605 122.299, 62.544 122.234, 57.004 117.492 L 53.507 114.500 56.004 117.342 M 26.031 116.500 C 26.031 117.050, 26.467 118.175, 27 119 C 27.533 119.825, 27.969 120.050, 27.969 119.500 C 27.969 118.950, 27.533 117.825, 27 117 C 26.467 116.175, 26.031 115.950, 26.031 116.500 M 142.405 118.250 L 140.500 120.500 142.750 118.595 C 143.988 117.547, 145 116.535, 145 116.345 C 145 115.545, 144.195 116.136, 142.405 118.250 M 169.695 123.513 C 168.781 125.431, 168.239 127, 168.490 127 C 169.175 127, 172.210 120.877, 171.753 120.420 C 171.536 120.203, 170.610 121.594, 169.695 123.513 M 86 122 C 85.099 122.582, 84.975 122.975, 85.691 122.985 C 86.346 122.993, 87.160 122.550, 87.500 122 C 88.267 120.758, 87.921 120.758, 86 122 M 119.607 122.582 C 118.734 124.856, 118.809 125.009, 120.750 124.921 C 121.713 124.878, 121.963 124.624, 121.306 124.356 C 120.650 124.089, 120.360 123.225, 120.663 122.435 C 120.966 121.646, 120.989 121, 120.714 121 C 120.439 121, 119.941 121.712, 119.607 122.582 M 63.733 123.124 C 64.412 123.808, 65.219 124.115, 65.526 123.807 C 65.834 123.499, 65.279 122.940, 64.293 122.564 C 62.868 122.022, 62.753 122.136, 63.733 123.124 M 78.813 124.683 C 79.534 124.972, 80.397 124.936, 80.729 124.604 C 81.061 124.272, 80.471 124.036, 79.417 124.079 C 78.252 124.127, 78.015 124.364, 78.813 124.683 M 129.813 124.683 C 130.534 124.972, 131.397 124.936, 131.729 124.604 C 132.061 124.272, 131.471 124.036, 130.417 124.079 C 129.252 124.127, 129.015 124.364, 129.813 124.683 M 31.672 127.750 C 32.639 129.537, 35.681 133.137, 38.431 135.750 L 43.432 140.500 38.457 135 C 35.721 131.975, 32.679 128.375, 31.698 127 C 29.976 124.588, 29.975 124.615, 31.672 127.750 M 123.750 125.662 C 124.438 125.940, 125.563 125.940, 126.250 125.662 C 126.938 125.385, 126.375 125.158, 125 125.158 C 123.625 125.158, 123.063 125.385, 123.750 125.662 M 111.242 134.095 C 107.699 137.870, 102.626 141.998, 99.551 143.608 C 96.563 145.172, 94.273 146.607, 94.462 146.796 C 95.452 147.785, 104.238 141.977, 109.730 136.704 C 114.554 132.072, 116.015 131.123, 116.063 132.591 C 116.115 134.146, 116.307 134.048, 117.101 132.062 C 119.120 127.007, 117.302 127.638, 111.242 134.095 M 161 135.500 C 158.571 137.975, 156.809 140, 157.084 140 C 157.359 140, 159.571 137.975, 162 135.500 C 164.429 133.025, 166.191 131, 165.916 131 C 165.641 131, 163.429 133.025, 161 135.500 M 115.079 137.583 C 115.127 138.748, 115.364 138.985, 115.683 138.188 C 115.972 137.466, 115.936 136.603, 115.604 136.271 C 115.272 135.939, 115.036 136.529, 115.079 137.583 M 153.872 141.750 C 152.629 143.336, 152.664 143.371, 154.250 142.128 C 155.213 141.373, 156 140.585, 156 140.378 C 156 139.555, 155.179 140.084, 153.872 141.750 M 48 143.490 C 48 144.175, 54.123 147.210, 54.580 146.753 C 54.797 146.536, 53.406 145.610, 51.487 144.695 C 49.569 143.781, 48 143.239, 48 143.490 M 148 145 C 147.099 145.582, 146.975 145.975, 147.691 145.985 C 148.346 145.993, 149.160 145.550, 149.500 145 C 150.267 143.758, 149.921 143.758, 148 145 M 58.500 148.536 C 60.150 149.292, 62.175 149.896, 63 149.879 C 63.825 149.862, 62.925 149.241, 61 148.500 C 56.434 146.742, 54.638 146.768, 58.500 148.536 M 112 147.902 C 112 148.940, 113.902 150.443, 114.466 149.850 C 114.649 149.658, 114.169 148.920, 113.399 148.211 C 112.630 147.501, 112 147.362, 112 147.902 M 86.500 149 C 85.239 149.542, 85.055 149.859, 86 149.859 C 86.825 149.859, 88.400 149.473, 89.500 149 C 90.761 148.458, 90.945 148.141, 90 148.141 C 89.175 148.141, 87.600 148.527, 86.500 149 M 135.813 149.683 C 136.534 149.972, 137.397 149.936, 137.729 149.604 C 138.061 149.272, 137.471 149.036, 136.417 149.079 C 135.252 149.127, 135.015 149.364, 135.813 149.683 M 70.776 150.733 C 73.128 150.945, 76.728 150.942, 78.776 150.727 C 80.824 150.512, 78.900 150.339, 74.500 150.343 C 70.100 150.346, 68.424 150.522, 70.776 150.733 M 121.776 150.733 C 124.128 150.945, 127.728 150.942, 129.776 150.727 C 131.824 150.512, 129.900 150.339, 125.500 150.343 C 121.100 150.346, 119.424 150.522, 121.776 150.733" stroke="none" fill="#076941" fill-rule="evenodd"/><path d="M 69.500 49.625 C 39.440 53.741, 19.114 81.474, 25.105 110.201 C 29.936 133.368, 50.567 150.018, 74.407 149.989 C 89.716 149.971, 100.880 145.111, 111.521 133.831 C 115.084 130.053, 118 127.423, 118 127.986 C 118 128.549, 116.845 133.349, 115.434 138.654 C 113.364 146.432, 113.122 148.462, 114.184 149.135 C 116.502 150.605, 133.297 150.101, 139.068 148.388 C 158.317 142.677, 172.149 126.807, 175.140 107 C 178.205 86.710, 166.878 64.559, 148.738 55.367 C 127.540 44.625, 101.190 49.718, 86.840 67.330 C 84.523 70.173, 82.297 72.892, 81.893 73.371 C 81.078 74.337, 81.937 70.252, 84.910 59.025 C 87.049 50.948, 86.761 50.054, 82 50.004 C 80.625 49.990, 77.925 49.806, 76 49.596 C 74.075 49.386, 71.150 49.399, 69.500 49.625 M 67.821 75.395 C 51.399 79.817, 43.874 99.671, 53.307 113.690 C 60.477 124.345, 72.570 127.936, 85.139 123.141 C 92.002 120.522, 99.966 109.588, 99.990 102.750 L 100 100 112.638 100 L 125.275 100 124.618 105.594 C 124.047 110.447, 121.961 117.729, 119.599 123.114 C 119.056 124.351, 119.612 124.872, 121.980 125.346 C 126.643 126.279, 134.475 124.207, 139.682 120.664 C 152.561 111.901, 154.276 93.455, 143.293 81.823 C 137.268 75.442, 124.088 72.769, 115.860 76.261 C 107.753 79.702, 100 89.835, 100 96.989 L 100 100 87.500 100 L 75 100 75.013 95.750 C 75.021 93.412, 76.304 87.830, 77.865 83.345 L 80.704 75.191 77.727 74.595 C 73.940 73.838, 73.459 73.877, 67.821 75.395" stroke="none" fill="#07ef89" fill-rule="evenodd"/></svg>